<svg version="1.2" baseProfile="tiny-ps" xmlns="http://www.w3.org/2000/svg" viewBox="0 0 16 12" width="16" height="12">
	<title>flag-svg</title>
	<style>
		tspan { white-space:pre }
		.shp0 { fill: #000000 } 
	</style>
	<path id="Layer" fill-rule="evenodd" class="shp0" d="M14.78 0.09C14.81 0.11 14.84 0.13 14.87 0.16C14.9 0.2 14.92 0.23 14.94 0.26C14.96 0.3 14.97 0.34 14.98 0.38C14.99 0.42 15 0.46 15 0.5L15 8C15 8.05 14.99 8.1 14.98 8.15C14.96 8.19 14.94 8.24 14.91 8.28C14.89 8.32 14.85 8.36 14.81 8.39C14.78 8.42 14.73 8.45 14.69 8.46L14.68 8.46L14.68 8.47L14.65 8.48C14.62 8.49 14.59 8.5 14.56 8.52C14.52 8.53 14.49 8.54 14.46 8.55C14.42 8.57 14.39 8.58 14.36 8.59C14.32 8.6 14.29 8.62 14.26 8.63C13.99 8.72 13.63 8.85 13.21 8.98C12.39 9.23 11.33 9.5 10.5 9.5C9.65 9.5 8.95 9.22 8.34 8.97L8.31 8.96C7.68 8.71 7.14 8.5 6.5 8.5C5.8 8.5 4.86 8.73 4.06 8.98C3.97 9 3.88 9.03 3.8 9.06C3.71 9.09 3.62 9.12 3.53 9.15C3.44 9.18 3.35 9.21 3.26 9.25C3.18 9.28 3.09 9.31 3 9.34L3 15.5C3 15.63 2.95 15.76 2.85 15.85C2.76 15.95 2.63 16 2.5 16C2.37 16 2.24 15.95 2.15 15.85C2.05 15.76 2 15.63 2 15.5L2 0.5C2 0.37 2.05 0.24 2.15 0.15C2.24 0.05 2.37 0 2.5 0C2.63 0 2.76 0.05 2.85 0.15C2.95 0.24 3 0.37 3 0.5L3 0.78C3.23 0.7 3.5 0.61 3.79 0.52C4.61 0.27 5.67 0 6.5 0C7.34 0 8.02 0.28 8.62 0.52L8.66 0.54C9.29 0.79 9.83 1 10.5 1C11.2 1 12.14 0.77 12.94 0.52C13.05 0.49 13.16 0.45 13.28 0.41C13.39 0.38 13.5 0.34 13.62 0.3C13.73 0.26 13.84 0.22 13.95 0.18C14.06 0.13 14.18 0.09 14.29 0.05L14.3 0.04L14.31 0.04L14.31 0.04M14 1.22C13.78 1.3 13.52 1.39 13.23 1.48C12.42 1.73 11.36 2 10.5 2C9.61 2 8.91 1.71 8.3 1.47L8.29 1.46C7.66 1.21 7.14 1 6.5 1C5.83 1 4.89 1.23 4.08 1.48C3.99 1.51 3.9 1.53 3.81 1.56C3.72 1.59 3.63 1.62 3.54 1.65C3.45 1.68 3.36 1.72 3.27 1.75C3.18 1.78 3.09 1.81 3 1.84L3 8.28C3.22 8.2 3.48 8.11 3.77 8.02C4.58 7.77 5.64 7.5 6.5 7.5C7.35 7.5 8.05 7.78 8.66 8.03L8.69 8.04C9.32 8.29 9.86 8.5 10.5 8.5C11.17 8.5 12.11 8.27 12.91 8.02C13.01 7.99 13.1 7.97 13.19 7.94C13.28 7.91 13.37 7.88 13.46 7.85C13.55 7.82 13.64 7.78 13.73 7.75C13.82 7.72 13.91 7.69 14 7.66L14 1.22Z" />
</svg>